<svg id="Layer_1" data-name="Layer 1" xmlns="http://www.w3.org/2000/svg" viewBox="0 0 247.27 238.76"><defs><style>.cls-1{fill:#fff;fill-rule:evenodd;}</style></defs><title>Tietoa_logot_ja_tunnus_RGB</title><path class="cls-1" d="M35.21,103.52a2.64,2.64,0,1,1,2.64,2.64A2.64,2.64,0,0,1,35.21,103.52Zm0,8.22a2.64,2.64,0,1,1,2.64,2.64A2.64,2.64,0,0,1,35.21,111.73Zm0,8.22a2.64,2.64,0,1,1,2.64,2.64A2.64,2.64,0,0,1,35.21,120Zm0,8.22a2.64,2.64,0,1,1,2.64,2.64A2.64,2.64,0,0,1,35.21,128.17Zm0,8.22A2.64,2.64,0,1,1,37.85,139,2.64,2.64,0,0,1,35.21,136.38Zm0,8.22a2.64,2.64,0,1,1,2.64,2.64A2.64,2.64,0,0,1,35.21,144.6Zm0,8.22a2.64,2.64,0,1,1,2.64,2.64A2.64,2.64,0,0,1,35.21,152.82Zm0,8.22a2.64,2.64,0,1,1,2.64,2.64A2.64,2.64,0,0,1,35.21,161Zm0,8.22a2.64,2.64,0,1,1,2.64,2.64A2.64,2.64,0,0,1,35.21,169.25Zm8.44,6.4a2.64,2.64,0,1,1,3.6-1A2.64,2.64,0,0,1,43.65,175.65Zm7.12,4.11a2.64,2.64,0,1,1,3.61-1A2.64,2.64,0,0,1,50.77,179.76Zm7.12,4.11a2.64,2.64,0,1,1,3.6-1A2.64,2.64,0,0,1,57.88,183.86ZM65,188a2.64,2.64,0,1,1,3.61-1A2.64,2.64,0,0,1,65,188Zm7.12,4.11a2.64,2.64,0,1,1,3.61-1A2.64,2.64,0,0,1,72.12,192.08Zm7.12,4.11a2.64,2.64,0,1,1,3.61-1A2.64,2.64,0,0,1,79.23,196.19Zm7.12,4.11a2.64,2.64,0,1,1,3.6-1A2.64,2.64,0,0,1,86.35,200.3Zm7.12,4.11a2.64,2.64,0,1,1,3.61-1A2.64,2.64,0,0,1,93.46,204.41Zm49.81-33.33a2.64,2.64,0,1,1-1,3.61A2.64,2.64,0,0,1,143.28,171.07Zm-7.12,4.11a2.64,2.64,0,1,1-1,3.6A2.64,2.64,0,0,1,136.16,175.18ZM129,179.29a2.64,2.64,0,1,1-1,3.6A2.64,2.64,0,0,1,129,179.29Zm-7.12,4.11a2.64,2.64,0,1,1-1,3.6A2.64,2.64,0,0,1,121.93,183.4Zm-7.12,4.11a2.64,2.64,0,1,1-1,3.6A2.64,2.64,0,0,1,114.81,187.51Zm-7.12,4.11a2.64,2.64,0,1,1-1,3.61A2.64,2.64,0,0,1,107.7,191.62Zm-7.12,4.11a2.64,2.64,0,1,1-1,3.6A2.64,2.64,0,0,1,100.58,195.73ZM86.35,72.47a2.64,2.64,0,1,1-1,3.6A2.64,2.64,0,0,1,86.35,72.47Zm-7.12,4.11a2.64,2.64,0,1,1-1,3.61A2.64,2.64,0,0,1,79.23,76.58Zm-7.12,4.11a2.64,2.64,0,1,1-1,3.61A2.64,2.64,0,0,1,72.12,80.69ZM65,84.8a2.64,2.64,0,1,1-1,3.61A2.64,2.64,0,0,1,65,84.8ZM57.88,88.9a2.64,2.64,0,1,1-1,3.6A2.64,2.64,0,0,1,57.88,88.9ZM50.77,93a2.64,2.64,0,1,1-1,3.6A2.64,2.64,0,0,1,50.77,93Zm-7.12,4.11a2.64,2.64,0,1,1-1,3.6A2.64,2.64,0,0,1,43.65,97.12Zm168.4-28.35v69.55L151.83,173.1,91.6,138.32V68.78L151.83,34Zm-63,34.74a2.64,2.64,0,1,1,2.64,2.64A2.64,2.64,0,0,1,149.07,103.52Zm0,9.07a2.64,2.64,0,1,1,2.64,2.64A2.64,2.64,0,0,1,149.07,112.59Zm0,9.07a2.64,2.64,0,1,1,2.64,2.64A2.64,2.64,0,0,1,149.07,121.66Zm0,9.07a2.64,2.64,0,1,1,2.64,2.64A2.64,2.64,0,0,1,149.07,130.73Zm0,9.07a2.64,2.64,0,1,1,2.64,2.64A2.64,2.64,0,0,1,149.07,139.8Zm0,9.07a2.64,2.64,0,1,1,2.64,2.64A2.64,2.64,0,0,1,149.07,148.87Zm0,9.07a2.64,2.64,0,1,1,2.64,2.64A2.64,2.64,0,0,1,149.07,157.94Zm0,9.07a2.64,2.64,0,1,1,2.64,2.64A2.64,2.64,0,0,1,149.07,167Zm-3.9-70.31a2.64,2.64,0,1,1-3.61,1A2.64,2.64,0,0,1,145.18,96.69Zm-7.86-4.54a2.64,2.64,0,1,1-3.6,1A2.64,2.64,0,0,1,137.32,92.16Zm-7.85-4.54a2.64,2.64,0,1,1-3.61,1A2.64,2.64,0,0,1,129.47,87.62Zm-7.86-4.54a2.64,2.64,0,1,1-3.61,1A2.64,2.64,0,0,1,121.61,83.09Zm-7.85-4.54a2.64,2.64,0,1,1-3.61,1A2.64,2.64,0,0,1,113.76,78.55ZM105.9,74a2.64,2.64,0,1,1-3.61,1A2.64,2.64,0,0,1,105.9,74ZM98,69.48a2.64,2.64,0,1,1-3.61,1A2.64,2.64,0,0,1,98,69.48Z"/></svg>